#!OML:ASF F:\VICON\USERDATA\INSTALL\rory3\rory3.ASF
:FULLY-SPECIFIED
:DEGREES
48
root 0.086177 16.7572 -9.01336 2.28649 2.31473 1.76336
lowerback 16.7415 1.30835 -4.34328
upperback 0.185341 0.859107 -0.341747
thorax -9.28244 0.599404 1.88635
lowerneck -18.8384 -4.98943 -2.34472
upperneck 12.5 -7.12026 5.76606
head 7.21271 -2.99105 1.43136
rclavicle 2.72087e-015 8.34896e-015
rhumerus -50.0726 5.04569 -98.0638
rradius 95.8413
rwrist -20.4892
rhand -18.8619 38.0438
rfingers 7.12502
rthumb 7.43841 8.19459
lclavicle 2.72087e-015 8.34896e-015
lhumerus -35.8815 -21.8557 100.118
lradius 111.212
lwrist 27.1813
lhand -25.0204 3.22679
lfingers 7.12502
lthumb 1.49188 33.2013
rfemur -34.9352 -3.2218 19.6081
rtibia 97.8277
rfoot -1.20496 -6.81979
rtoes 7.82889
lfemur -13.1626 1.04198 -27.2348
ltibia 50.7451
lfoot -27.4921 3.42336
ltoes -7.79867
49
root 0.094984 16.8518 -8.56267 2.36981 2.0028 1.8924
lowerback 16.8212 1.04899 -4.73329
upperback 0.0285236 0.45219 -0.119885
thorax -9.47899 0.435506 2.44776
lowerneck -18.3091 -4.68513 -2.66365
upperneck 12.1725 -6.60496 5.72302
head 7.00386 -2.78167 1.54221
rclavicle -1.70831e-015 -2.28602e-015
rhumerus -51.6148 5.88762 -98.1377
rradius 96.6582
rwrist -20.8949
rhand -18.8442 38.0645
rfingers 7.12502
rthumb 7.45557 8.21586
lclavicle -1.70831e-015 -2.28602e-015
lhumerus -35.117 -20.9337 99.9245
lradius 112.082
lwrist 27.8608
lhand -25.5135 3.16696
lfingers 7.12502
lthumb 1.01565 33.1443
rfemur -36.7988 -3.33126 19.5751
rtibia 96.5438
rfoot -1.6503 -6.65676
rtoes 7.71258
lfemur -10.7816 1.06162 -27.3874
ltibia 49.28
lfoot -26.492 3.96502
ltoes -12.1541
50
root 0.100789 16.9524 -8.10703 2.3758 1.62996 2.09539
lowerback 17.1204 0.799443 -5.20206
upperback -0.197554 0.0216377 0.0559054
thorax -9.86662 0.271653 3.01378
lowerneck -17.9608 -4.36695 -2.86519
upperneck 12.1531 -6.11074 5.62427
head 6.92006 -2.57062 1.60664
rclavicle -6.91864e-015 8.02593e-015
rhumerus -53.3875 6.66131 -98.2965
rradius 97.569
rwrist -21.055
rhand -18.6156 38.0776
rfingers 7.12502
rthumb 7.67622 8.23688
lclavicle -6.91864e-015 8.02593e-015
lhumerus -34.6609 -19.898 99.6717
lradius 113.005
lwrist 28.9666
lhand -26.2142 1.8139
lfingers 7.12502
lthumb 0.338888 31.7934
rfemur -38.4241 -3.23495 19.5491
rtibia 94.851
rfoot -2.15659 -6.6151
rtoes 5.96768
lfemur -8.38371 1.04803 -27.5791
ltibia 47.7296
lfoot -25.1309 3.25925
ltoes -14.1054
51
root 0.107568 17.0626 -7.63801 2.69583 1.76893 1.98564
lowerback 16.8258 0.428626 -5.1572
upperback -0.31635 -0.429628 0.22485
thorax -9.78798 0.0597344 3.28415
lowerneck -17.9461 -4.16832 -2.80101
upperneck 12.1524 -5.83034 5.46122
head 6.89739 -2.4481 1.57642
rclavicle 1.91175e-015 -3.96327e-015
rhumerus -54.6462 7.0014 -98.3717
rradius 98.3834
rwrist -21.117
rhand -18.504 37.8839
rfingers 7.12502
rthumb 7.78386 8.04722
lclavicle 1.91175e-015 -3.96327e-015
lhumerus -33.8336 -19.3087 99.2383
lradius 113.745
lwrist 30.2605
lhand -26.192 1.25465
lfingers 7.12502
lthumb 0.360322 31.2341
rfemur -40.0347 -3.3874 19.9779
rtibia 92.6542
rfoot -2.61666 -6.66967
rtoes 3.30706
lfemur -6.3021 0.518239 -27.3829
ltibia 45.9403
lfoot -23.1943 2.19014
ltoes -15.8155
52
root 0.118963 17.1795 -7.15759 3.20648 2.25776 1.77507
lowerback 16.0782 -0.122012 -4.85378
upperback -0.407716 -1.03919 0.448368
thorax -9.40489 -0.24962 3.49077
lowerneck -17.7889 -3.98019 -2.70434
upperneck 11.9254 -5.53523 5.12941
head 6.77105 -2.33812 1.49075
rclavicle -2.80162e-015 1.45113e-014
rhumerus -55.5649 7.4279 -98.3497
rradius 98.8861
rwrist -21.2427
rhand -18.255 38.0387
rfingers 7.12502
rthumb 8.02426 8.21107
lclavicle -2.80162e-015 1.45113e-014
lhumerus -33.1296 -18.5968 98.8719
lradius 114.595
lwrist 31.4133
lhand -26.1781 2.43006
lfingers 7.12502
lthumb 0.373695 32.4095
rfemur -41.4938 -3.82162 20.5422
rtibia 90.1191
rfoot -3.40845 -6.77983
rtoes 1.11261
lfemur -4.45855 -0.235657 -27.002
ltibia 44.1227
lfoot -20.978 0.999113
ltoes -18.0363
53
root 0.12013 17.291 -6.68661 3.17822 1.07077 1.62559
lowerback 15.9076 0.0795207 -4.92026
upperback -0.201293 -0.765958 0.489909
thorax -9.10562 -0.127601 3.50388
lowerneck -18.4595 -3.97157 -2.47344
upperneck 11.9897 -5.54867 4.98053
head 6.89293 -2.3346 1.39403
rclavicle 1.40143e-014 1.36664e-015
rhumerus -55.932 7.37536 -98.3474
rradius 99.2038
rwrist -21.1518
rhand -18.0584 38.2562
rfingers 7.12502
rthumb 8.21399 8.43589
lclavicle 1.40143e-014 1.36664e-015
lhumerus -32.1972 -18.3294 98.1673
lradius 115.219
lwrist 32.6646
lhand -26.2442 2.74587
lfingers 7.12502
lthumb 0.309895 32.7254
rfemur -42.4866 -2.58392 20.9247
rtibia 87.309
rfoot -4.13202 -6.7296
rtoes -1.03897
lfemur -2.0649 0.487998 -26.8667
ltibia 42.3525
lfoot -18.802 -0.139454
ltoes -20.7635
54
root 0.122119 17.4008 -6.21704 3.08147 -0.407055 1.44018
lowerback 15.887 0.420109 -4.99062
upperback -0.00587346 -0.319132 0.519508
thorax -8.92231 0.0812856 3.47033
lowerneck -19.4628 -3.94828 -2.30987
upperneck 12.5203 -5.56018 4.91426
head 7.22716 -2.31249 1.32823
rclavicle 8.89561e-015 4.94477e-015
rhumerus -56.4146 7.07919 -98.2322
rradius 99.6679
rwrist -21.002
rhand -17.8249 38.2436
rfingers 7.12502
rthumb 8.43928 8.43223
lclavicle 8.89561e-015 4.94477e-015
lhumerus -31.2413 -18.1268 97.4694
lradius 115.486
lwrist 33.4432
lhand -26.2394 2.47372
lfingers 7.12502
lthumb 0.31452 32.4532
rfemur -43.3019 -1.06413 21.2937
rtibia 84.2005
rfoot -4.61292 -6.41618
rtoes -2.093
lfemur 0.394302 1.44384 -26.7922
ltibia 40.5481
lfoot -16.2339 -0.890738
ltoes -25.2105
55
root 0.13939 17.5141 -5.7168 3.86816 0.291583 1.06256
lowerback 14.7617 -0.260957 -4.27637
upperback -0.163204 -1.01795 0.780999
thorax -8.39377 -0.291926 3.48463
lowerneck -19.7639 -3.81491 -2.46508
upperneck 12.8344 -5.33267 4.82864
head 7.37331 -2.20969 1.34763
rclavicle 4.21175e-015 -7.40473e-015
rhumerus -57.5123 7.25023 -98.0915
rradius 100.365
rwrist -20.8887
rhand -17.6073 38.1859
rfingers 7.12502
rthumb 8.64934 8.38306
lclavicle 4.21175e-015 -7.40473e-015
lhumerus -30.8035 -17.3598 97.039
lradius 115.802
lwrist 33.7709
lhand -26.5189 2.40377
lfingers 7.12502
lthumb 0.0445457 32.3835
rfemur -44.4627 -1.53215 21.9562
rtibia 80.79
rfoot -5.20821 -6.11276
rtoes -2.49081
lfemur 1.73279 0.571026 -26.2576
ltibia 38.8624
lfoot -12.833 -2.82594
ltoes -27.1029
56
root 0.141487 17.6167 -5.23548 3.49907 -1.11576 0.844073
lowerback 15.1362 -0.0277512 -4.3952
upperback -0.18851 -0.730842 0.969806
thorax -8.65639 -0.13609 3.70236
lowerneck -19.8018 -3.71143 -2.37509
upperneck 12.9692 -5.16266 4.49242
head 7.40457 -2.15396 1.24267
rclavicle 9.61621e-015 4.87022e-015
rhumerus -58.696 7.21934 -98.0325
rradius 101.021
rwrist -20.8042
rhand -17.5124 38.1283
rfingers 7.12502
rthumb 8.74087 8.32928
lclavicle 9.61621e-015 4.87022e-015
lhumerus -30.8781 -16.6753 96.71
lradius 116.233
lwrist 33.8312
lhand -26.6749 2.29275
lfingers 7.12502
lthumb -0.106053 32.2725
rfemur -44.3805 -0.140933 22.2929
rtibia 77.1368
rfoot -5.44612 -5.57603
rtoes -2.58085
lfemur 4.21715 1.67234 -26.09
ltibia 37.102
lfoot -9.37764 -4.19286
ltoes -28.5542
57
root 0.152175 17.7221 -4.73433 3.69347 -1.45036 0.600436
lowerback 14.8303 -0.184655 -4.05512
upperback -0.345556 -0.857048 1.1032
thorax -8.64402 -0.206317 3.67645
lowerneck -19.8702 -3.63232 -2.17391
upperneck 13.2263 -5.05063 4.09932
head 7.47979 -2.12381 1.0929
rclavicle -1.23992e-014 1.98785e-015
rhumerus -59.6024 7.03141 -97.9052
rradius 101.415
rwrist -20.6925
rhand -17.5771 38.3224
rfingers 7.12502
rthumb 8.6785 8.52082
lclavicle -1.23992e-014 1.98785e-015
lhumerus -31.1544 -16.133 96.4454
lradius 116.539
lwrist 33.5224
lhand -26.1183 2.24246
lfingers 7.12502
lthumb 0.431476 32.2218
rfemur -44.5788 0.278168 22.7086
rtibia 73.193
rfoot -5.79227 -5.32258
rtoes -3.32546
lfemur 5.81096 1.87254 -25.7664
ltibia 35.4193
lfoot -4.91763 -6.85667
ltoes -26.7606
58
root 0.164571 17.8179 -4.23947 3.52887 -2.52027 0.64053
lowerback 14.811 -0.0863213 -4.14215
upperback -0.409734 -0.738496 1.14531
thorax -8.7129 -0.141365 3.74646
lowerneck -19.4192 -3.48868 -2.05463
upperneck 13.1565 -4.83771 3.79537
head 7.36254 -2.05307 1.00619
rclavicle 1.47598e-014 4.77083e-015
rhumerus -60.328 6.97931 -97.7849
rradius 101.624
rwrist -20.5017
rhand -18.1106 38.2111
rfingers 7.12502
rthumb 8.16361 8.38878
lclavicle 1.47598e-014 4.77083e-015
lhumerus -31.4078 -15.5423 96.0466
lradius 116.694
lwrist 33.2377
lhand -25.6594 2.2532
lfingers 7.12502
lthumb 0.874751 32.2312
rfemur -44.3877 1.1918 22.7763
rtibia 69.0687
rfoot -5.53151 -4.57276
rtoes -8.09614
lfemur 7.696 2.48561 -25.9547
ltibia 33.4704
lfoot 0.288449 -8.31588
ltoes -26.328
